<?xml version="1.0" encoding="UTF-8"?>
<svg width="24px" height="25px" viewBox="0 0 24 25" version="1.1" xmlns="http://www.w3.org/2000/svg" xmlns:xlink="http://www.w3.org/1999/xlink">
    <title>A38240BC-1DB6-4452-AF95-CD0DC5AA3503</title>
    <defs>
        <polygon id="path-1" points="0 0 24 0 24 25 0 25"></polygon>
    </defs>
    <g id="Page-1" stroke="none" stroke-width="1" fill="none" fill-rule="evenodd">
        <g id="Destination-Introduction-component-Copy-2" transform="translate(-631.000000, -603.000000)">
            <g id="Group" transform="translate(472.000000, 200.000000)">
                <g id="Group-38" transform="translate(48.000000, 403.000000)">
                    <g id="Group-3" transform="translate(111.000000, 0.000000)">
                        <mask id="mask-2" fill="white">
                            <use xlink:href="#path-1"></use>
                        </mask>
                        <g id="Clip-2"></g>
                        <path d="M23.7870726,19.0203804 C23.9214674,18.9173913 24.0002692,18.7570652 24,18.5869565 L23.9975705,17.2480978 C23.9973006,17.0758152 23.91607,16.913587 23.7781669,16.811413 L13.9638372,9.53097826 L13.9638372,2.74673913 C13.9638372,1.77826087 13.2181889,0 12,0 C11.4432598,0 10.9194439,0.383423913 10.5257049,1.07853261 C10.2301982,1.58586957 10.0620697,2.15869565 10.0364322,2.74673913 L10.0364322,9.53097826 L0.222102498,16.811413 C0.0844692555,16.913587 0.00269891721,17.0758152 0.00242904811,17.2480978 L0,18.5869565 C-0.000269642924,18.8869565 0.240993335,19.1307065 0.538928825,19.13125 C0.588314871,19.1315217 0.637431048,19.1247283 0.68492801,19.111413 L10.0364322,16.4872283 L10.0364322,19.6524457 L7.7241937,22.4353261 C7.64323297,22.5331522 7.59897443,22.6565217 7.59870456,22.7842391 L7.59870456,24.2152174 C7.59870456,24.5154891 7.84023741,24.7586957 8.13844277,24.7586957 C8.23019827,24.7586957 8.32033455,24.7353261 8.40048567,24.6902174 L10.6908647,23.4089674 C11.0479016,24.5165761 11.453245,25 12,25 C12.5470244,25 12.9523678,24.5165761 13.3094047,23.4089674 L15.5995139,24.6902174 C15.8602074,24.8361413 16.188908,24.7418478 16.3335578,24.4796196 C16.3783561,24.3986413 16.4015648,24.3078804 16.4015648,24.2152174 L16.4015648,22.7842391 C16.4015648,22.6565217 16.3573063,22.5331522 16.2758058,22.4353261 L13.9638372,19.6524457 L13.9638372,16.4872283 L23.3153414,19.111413 C23.4780725,19.1567935 23.6526778,19.1230978 23.7870726,19.0203804" id="Fill-1" fill="#B3A97E" mask="url(#mask-2)"></path>
                    </g>
                </g>
            </g>
        </g>
    </g>
</svg>