<?xml version="1.0" encoding="UTF-8"?>
<svg width="19px" height="18px" viewBox="0 0 19 18" version="1.1" xmlns="http://www.w3.org/2000/svg" xmlns:xlink="http://www.w3.org/1999/xlink">
    <title>6BC9C63E-452F-4183-B1B9-F091B1C35344</title>
    <g id="Page-1" stroke="none" stroke-width="1" fill="none" fill-rule="evenodd">
        <g id="Destination-Introduction-component-Copy-2" transform="translate(-873.000000, -605.000000)" fill="#B3A97E">
            <g id="Group" transform="translate(472.000000, 200.000000)">
                <g id="Group-38" transform="translate(48.000000, 403.000000)">
                    <g id="Group-35" transform="translate(353.000000, 2.000000)">
                        <path d="M16.3010554,17.6810541 C18.7372068,16.8393991 20.0541426,14.134814 17.9470454,13.1730476 L14.6550655,12.2112812 C13.6674236,11.9106745 13.272223,11.8507281 12.4163945,12.6921644 C11.6262331,13.5336006 11.5603264,13.8941536 10.1774839,13.2329939 C8.59740068,12.5118878 5.63447498,9.62658862 4.91022023,8.1239927 C4.31753923,6.80145449 4.71250012,6.80145449 5.70038168,6.14029478 C6.68802358,5.41918876 6.68802358,5.05841696 6.42463643,4.15703443 L5.56856828,1.0914587 C4.64683308,-0.952185525 1.55209397,0.129692294 0.498545369,2.23350162 C-2.59595408,8.3042692 9.45346883,20.0852514 16.3010554,17.6810541" id="Fill-1"></path>
                    </g>
                </g>
            </g>
        </g>
    </g>
</svg>