<?xml version="1.0" encoding="UTF-8"?>
<svg width="17px" height="21px" viewBox="0 0 17 21" version="1.1" xmlns="http://www.w3.org/2000/svg" xmlns:xlink="http://www.w3.org/1999/xlink">
    <title>Shape</title>
    <defs>
        <path d="M26.9080645,22.2309582 C26.5516129,21.9213759 26.5516129,21.3538084 26.9080645,21.044226 L29.8967742,18.2321867 C30.2258065,17.9226044 30.7741935,17.9226044 31.1032258,18.2321867 L34.0919355,21.044226 C34.4483871,21.3796069 34.4483871,21.9213759 34.0919355,22.2309582 C33.9274194,22.3599509 33.7354839,22.4373464 33.516129,22.4373464 C33.2967742,22.4373464 33.05,22.3599509 32.8854839,22.2051597 L31.3225806,20.7088452 L31.3225806,30.8476658 C31.3225806,31.2862408 30.966129,31.6474201 30.5,31.6474201 C30.033871,31.6474201 29.6774194,31.2862408 29.6774194,30.8476658 L29.6774194,20.7088452 L28.0870968,22.1793612 C27.9225806,22.3341523 27.7032258,22.4115479 27.483871,22.4115479 C27.2645161,22.4373464 27.0451613,22.3599509 26.9080645,22.2309582 Z M37.3548387,23.2886978 L34.6129032,23.2886978 C34.1741935,23.2886978 33.7629032,23.5724816 33.7354839,23.985258 C33.6806452,24.47543 34.0645161,24.8366093 34.5580645,24.8366093 L36.916129,24.8366093 C37.1629032,24.8366093 37.3548387,24.9914005 37.3548387,25.2235872 L37.3548387,36.9103194 C37.3548387,37.1425061 37.1629032,37.2199017 36.916129,37.2199017 L24.083871,37.2199017 C23.8370968,37.2199017 23.6451613,37.1425061 23.6451613,36.9103194 L23.6451613,25.2235872 C23.6451613,24.9914005 23.8370968,24.8366093 24.083871,24.8366093 L26.3870968,24.8366093 C26.8258065,24.8366093 27.2370968,24.5528256 27.2645161,24.1400491 C27.3193548,23.6498771 26.9080645,23.2886978 26.4145161,23.2886978 L23.6451613,23.2886978 C22.6854839,23.2886978 22,23.9336609 22,24.8108108 L22,37.2972973 C22,38.2002457 22.6854839,39 23.6451613,39 L37.3548387,39 C38.3145161,39 39,38.1744472 39,37.2972973 L39,24.8108108 C39,23.9336609 38.3145161,23.2886978 37.3548387,23.2886978 Z" id="path-1"></path>
    </defs>
    <g id="Page-1" stroke="none" stroke-width="1" fill="none" fill-rule="evenodd">
        <g id="iPhone-11" transform="translate(-337.000000, -654.000000)">
            <g id="Group" transform="translate(315.000000, 636.000000)">
                <mask id="mask-2" fill="white">
                    <use xlink:href="#path-1"></use>
                </mask>
                <use id="Shape" fill="#787276" fill-rule="nonzero" xlink:href="#path-1"></use>
            </g>
        </g>
    </g>
</svg>