<?xml version="1.0" encoding="UTF-8"?>
<svg width="290px" height="17px" viewBox="0 0 290 17" version="1.1" xmlns="http://www.w3.org/2000/svg" xmlns:xlink="http://www.w3.org/1999/xlink">
    <title>Group-18</title>
    <g id="Page-1" stroke="none" stroke-width="1" fill="none" fill-rule="evenodd">
        <g id="TK_logo_desktop" transform="translate(-2.000000, -238.000000)" fill="#fff" fill-rule="nonzero">
            <g id="Group-18" transform="translate(2.490000, 238.198531)">
                <path d="M43.6857885,14.921146 L43.51,11.6998221 C44.5614348,12.3139831 45.9644467,12.6205142 47.0158815,12.6205142 C48.2650784,12.6205142 49.1198499,12.1601681 49.1198499,11.0867597 C49.1198499,10.1671662 48.4408669,9.68374793 47.5421483,9.24647408 L45.9644467,8.47959683 C44.0802139,7.55890467 43.51,6.06909729 43.51,4.64411192 C43.51,1.88423278 45.7886582,0.350478283 48.549636,0.350478283 C49.645018,0.350478283 51.0480298,0.504293204 51.9247748,0.963540609 L51.9247748,4.18486452 C50.9601355,3.41798727 49.5790973,3.11145611 48.5935831,3.11145611 C47.4322805,3.11145611 46.8411917,3.59267707 46.8411917,4.49139568 C46.8411917,5.28024649 47.2795642,5.63072477 48.0673164,6.02515017 L49.2945397,6.63931118 C50.9821091,7.49298399 52.4499429,8.32578191 52.4499429,11.0867597 C52.4499429,14.0004538 50.1053641,15.3814921 47.0158815,15.3814921 C45.9644467,15.3814921 44.386745,15.2276771 43.6857885,14.921146" id="Fill-3"></path>
                <polygon id="Fill-5" points="67.1905713 3.26483156 63.51 3.26483156 63.51 0.503853733 74.2023343 0.503853733 73.851856 3.26483156 70.3459745 3.26483156 70.3459745 15.2283363 67.1905713 15.2283363"></polygon>
                <polygon id="Fill-7" points="84.51 15.2276771 87.6654032 15.2276771 87.6654032 0.504293204 84.51 0.504293204"></polygon>
                <polygon id="Fill-9" points="99.386745 1.77458471 98.51 0.504512939 102.542148 0.504512939 107.97621 8.47981657 107.97621 0.504512939 110.955824 0.504512939 110.955824 15.2278969 108.677166 15.2278969 102.36636 6.09129059 102.36636 15.2278969 99.386745 15.2278969"></polygon>
                <path d="M121.51,7.8655457 C121.51,3.41809714 124.489615,0.350588151 128.872241,0.350588151 C130.274154,0.350588151 131.676068,0.656020636 132.378123,1.11636672 L132.378123,4.33769063 C131.326688,3.41809714 130.099465,3.2653809 129.046931,3.2653809 C126.769372,3.2653809 124.840093,4.95185163 124.840093,7.8655457 C124.840093,10.6704706 126.243105,12.6206241 128.345975,12.6206241 C128.674479,12.6206241 129.46333,12.576677 129.748986,12.4668092 L129.748986,9.39930019 L127.995496,9.39930019 L128.345975,6.79213729 L132.728601,6.79213729 L132.728601,15.3816019 L130.97621,14.7674409 C130.449943,15.0750708 129.046931,15.3816019 127.995496,15.3816019 C124.139136,15.3816019 121.51,12.576677 121.51,7.8655457" id="Fill-10"></path>
                <path d="M158.243575,7.8655457 L162.800892,0.504403072 L166.306773,0.504403072 L161.749457,7.55901453 L166.306773,15.227787 L162.626202,15.227787 L158.243575,7.8655457 Z M154.913482,15.227787 L158.068886,15.227787 L158.068886,0.504403072 L154.913482,0.504403072 L154.913482,15.227787 Z" id="Fill-11"></path>
                <polygon id="Fill-12" points="177.41 15.2276771 180.565403 15.2276771 180.565403 0.504293204 177.41 0.504293204"></polygon>
                <polygon id="Fill-13" points="195.09167 3.26483156 191.41 3.26483156 191.41 0.503853733 202.103433 0.503853733 201.751856 3.26483156 198.247073 3.26483156 198.247073 15.2283363 195.09167 15.2283363"></polygon>
                <path d="M213.81,8.01903101 C213.81,3.41886621 216.614925,0.351357226 220.821763,0.351357226 C222.048986,0.351357226 223.27621,0.656789711 223.626688,0.809505953 L223.626688,4.18464478 C223.100421,3.72539738 222.223676,3.26505129 220.997552,3.26505129 C218.543105,3.26505129 217.140093,5.10533695 217.140093,7.86521609 C217.140093,10.6261939 218.543105,12.6202945 220.821763,12.6202945 C221.873198,12.6202945 222.815864,12.3357369 223.626688,11.700701 L223.626688,14.76821 C222.924633,15.2285561 221.52272,15.3812723 220.295496,15.3812723 C216.264447,15.3812723 213.81,12.4236311 213.81,8.01903101" id="Fill-14"></path>
                <polygon id="Fill-15" points="234.81 0.504183336 237.965403 0.504183336 237.965403 6.33267015 242.52272 6.33267015 242.52272 0.504183336 245.678123 0.504183336 245.678123 15.2275673 242.52272 15.2275673 242.52272 9.24636421 237.965403 9.24636421 237.965403 15.2275673 234.81 15.2275673"></polygon>
                <polygon id="Fill-16" points="256.51 0.504183336 264.748986 0.504183336 264.398508 3.26516116 259.665403 3.26516116 259.665403 6.48538639 264.046931 6.48538639 263.697552 9.24636421 259.665403 9.24636421 259.665403 12.4676881 264.923676 12.4676881 264.573198 15.2275673 256.51 15.2275673"></polygon>
                <polygon id="Fill-17" points="276.986745 1.77458471 276.11 0.504512939 280.142148 0.504512939 285.57621 8.47981657 285.57621 0.504512939 288.555824 0.504512939 288.555824 15.2278969 286.277166 15.2278969 279.96636 6.09129059 279.96636 15.2278969 276.986745 15.2278969"></polygon>
                <polygon id="Fill-1" points="0.21 0.503853733 0.21 3.26483156 3.89057131 3.26483156 3.89057131 15.2283363 7.04597454 15.2283363 7.04597454 3.26483156 10.551856 3.26483156 10.9023343 0.503853733"></polygon>
                <path d="M25.7168381,0.503853733 L25.9574486,1.29270454 L21.51,15.2283363 L24.6643045,15.2283363 L25.3224127,12.9277046 L29.5731979,12.9277046 L30.2730558,15.2283363 L33.4295577,15.2283363 L28.8711426,0.503853733 L25.7168381,0.503853733 Z M27.3373881,5.7401531 L28.7612748,10.319443 L26.0453428,10.319443 L27.3373881,5.7401531 Z" id="Fill-2"></path>
            </g>
        </g>
    </g>
</svg>