<?xml version="1.0" encoding="UTF-8"?>
<svg width="292px" height="208px" viewBox="0 0 292 208" version="1.1" xmlns="http://www.w3.org/2000/svg" xmlns:xlink="http://www.w3.org/1999/xlink">
    <title>Fill-1</title>
    <g id="Page-1" stroke="none" stroke-width="1" fill="none" fill-rule="evenodd">
        <g id="TK_logo_desktop" fill="#B3A97E" fill-rule="nonzero">
            <path d="M197.52566,89.941683 L279.490515,0 L259.152988,0 L174.68446,92.6644444 L174.68446,38.3703704 L173.143738,0 L2.24072173,0 L0.7,41.44 L10.2540154,41.44 C12.1013408,21.4874074 14.5664955,12.2785185 38.6017545,12.2785185 L66.8339394,12.2785185 L66.8339394,207.2 L93.0262087,207.2 L93.0262087,12.2785185 L120.874754,12.2785185 C140.318662,12.2785185 145.671129,17.421683 148.002241,30.143763 C148.133203,31.7307615 148.492191,33.4129185 148.492191,35.2639052 L148.492191,207.2 L174.68446,207.2 L174.68446,102.832593 L175.339267,102.832593 L258.844844,207.2 L291.2,207.2 L197.52566,89.941683 Z" id="Fill-1"></path>
        </g>
    </g>
</svg>