<?xml version="1.0" encoding="UTF-8"?>
<svg width="177px" height="11px" viewBox="0 0 177 11" version="1.1" xmlns="http://www.w3.org/2000/svg" xmlns:xlink="http://www.w3.org/1999/xlink">
    <title>Group-18</title>
    <g id="Page-1" stroke="none" stroke-width="1" fill="none" fill-rule="evenodd">
        <g id="TK_logo_mobile" transform="translate(-1.000000, -144.000000)" fill="#DFDBCB" fill-rule="nonzero">
            <g id="Group-18" transform="translate(1.517877, 144.787342)">
                <path d="M26.6303779,9.06971618 L26.5232192,7.11165655 C27.1641623,7.4849701 28.019423,7.67129296 28.6603661,7.67129296 C29.4218629,7.67129296 29.9429222,7.39147476 29.9429222,6.73901082 C29.9429222,6.18004223 29.5290216,5.88619972 28.9811726,5.62040581 L28.019423,5.15426474 C26.8708153,4.59462833 26.5232192,3.68905914 26.5232192,2.82289156 C26.5232192,1.14531796 27.9122642,0.213035819 29.5953261,0.213035819 C30.2630589,0.213035819 31.1183195,0.306531163 31.6527737,0.585681547 L31.6527737,2.54374118 C31.0647402,2.07760011 30.2228744,1.89127724 29.6221157,1.89127724 C28.9141984,1.89127724 28.5538771,2.1837841 28.5538771,2.73006404 C28.5538771,3.20956159 28.8211042,3.42259741 29.3013093,3.66234618 L30.0494112,4.03565973 C31.078135,4.55455889 31.9729104,5.0607694 31.9729104,6.73901082 C31.9729104,8.51007976 30.5436808,9.34953439 28.6603661,9.34953439 C28.019423,9.34953439 27.0576734,9.25603904 26.6303779,9.06971618" id="Fill-3"></path>
                <polygon id="Fill-5" points="40.9586359 1.98450546 38.715 1.98450546 38.715 0.306264034 45.2329298 0.306264034 45.0192821 1.98450546 42.8821352 1.98450546 42.8821352 9.25643974 40.9586359 9.25643974"></polygon>
                <polygon id="Fill-7" points="51.5163699 9.25603904 53.4398691 9.25603904 53.4398691 0.306531163 51.5163699 0.306531163"></polygon>
                <polygon id="Fill-9" points="60.5850706 1.07866914 60.0506164 0.306664728 62.5085698 0.306664728 65.8211141 5.15439831 65.8211141 0.306664728 67.6374546 0.306664728 67.6374546 9.25617261 66.2484096 9.25617261 62.4014111 3.70254918 62.4014111 9.25617261 60.5850706 9.25617261"></polygon>
                <path d="M74.0711644,4.78101797 C74.0711644,2.07766689 75.8875049,0.213102602 78.559106,0.213102602 C79.4136969,0.213102602 80.2682878,0.398757642 80.6962529,0.678575849 L80.6962529,2.63663548 C80.0553098,2.07766689 79.3072079,1.98483937 78.665595,1.98483937 C77.2772197,1.98483937 76.1011526,3.00994903 76.1011526,4.78101797 C76.1011526,6.48597235 76.9564132,7.67135975 78.2382995,7.67135975 C78.4385524,7.67135975 78.9194272,7.64464679 79.0935602,7.5778644 L79.0935602,5.71330012 L78.0246518,5.71330012 L78.2382995,4.12855404 L80.9099007,4.12855404 L80.9099007,9.34960117 L79.8416621,8.97628762 C79.5208556,9.1632783 78.665595,9.34960117 78.0246518,9.34960117 C75.6738572,9.34960117 74.0711644,7.64464679 74.0711644,4.78101797" id="Fill-10"></path>
                <path d="M96.4635494,4.78101797 L99.2416395,0.306597945 L101.378786,0.306597945 L98.6006963,4.59469511 L101.378786,9.25610582 L99.1351505,9.25610582 L96.4635494,4.78101797 Z M94.4335611,9.25610582 L96.3570604,9.25610582 L96.3570604,0.306597945 L94.4335611,0.306597945 L94.4335611,9.25610582 Z" id="Fill-11"></path>
                <polygon id="Fill-12" points="108.147192 9.25603904 110.070691 9.25603904 110.070691 0.306531163 108.147192 0.306531163"></polygon>
                <polygon id="Fill-13" points="118.925744 1.98450546 116.681438 1.98450546 116.681438 0.306264034 123.200038 0.306264034 122.98572 1.98450546 120.849243 1.98450546 120.849243 9.25643974 118.925744 9.25643974"></polygon>
                <path d="M130.336233,4.87431297 C130.336233,2.07813436 132.046084,0.213570078 134.610527,0.213570078 C135.358629,0.213570078 136.106731,0.399225118 136.320378,0.492052638 L136.320378,2.54360761 C135.999572,2.26445723 135.465118,1.98463902 134.717686,1.98463902 C133.221482,1.98463902 132.366221,3.10324403 132.366221,4.78081763 C132.366221,6.45905905 133.221482,7.6711594 134.610527,7.6711594 C135.25147,7.6711594 135.826109,7.49819301 136.320378,7.11219081 L136.320378,8.97675509 C135.892413,9.2565733 135.037822,9.34940082 134.28972,9.34940082 C131.832437,9.34940082 130.336233,7.55161892 130.336233,4.87431297" id="Fill-14"></path>
                <polygon id="Fill-15" points="143.137603 0.306464381 145.061102 0.306464381 145.061102 3.84927009 147.839192 3.84927009 147.839192 0.306464381 149.762691 0.306464381 149.762691 9.25597226 147.839192 9.25597226 147.839192 5.62033903 145.061102 5.62033903 145.061102 9.25597226 143.137603 9.25597226"></polygon>
                <polygon id="Fill-16" points="156.365685 0.306464381 161.388081 0.306464381 161.174433 1.9847058 158.289184 1.9847058 158.289184 3.94209761 160.960116 3.94209761 160.747138 5.62033903 158.289184 5.62033903 158.289184 7.57839866 161.49457 7.57839866 161.280922 9.25597226 156.365685 9.25597226"></polygon>
                <polygon id="Fill-17" points="168.848084 1.07866914 168.31363 0.306664728 170.771584 0.306664728 174.084128 5.15439831 174.084128 0.306664728 175.900468 0.306664728 175.900468 9.25617261 174.511423 9.25617261 170.664425 3.70254918 170.664425 9.25617261 168.848084 9.25617261"></polygon>
                <polygon id="Fill-1" points="0.128013699 0.306264034 0.128013699 1.98450546 2.37164964 1.98450546 2.37164964 9.25643974 4.29514886 9.25643974 4.29514886 1.98450546 6.43229581 1.98450546 6.64594353 0.306264034"></polygon>
                <path d="M15.6767027,0.306264034 L15.8233762,0.785761583 L13.1122603,9.25643974 L15.0350898,9.25643974 L15.4362653,7.85801652 L18.0274973,7.85801652 L18.454123,9.25643974 L20.378292,9.25643974 L17.5995321,0.306264034 L15.6767027,0.306264034 Z M16.6645722,3.48911267 L17.5325579,6.27260262 L15.8769555,6.27260262 L16.6645722,3.48911267 Z" id="Fill-2"></path>
            </g>
        </g>
    </g>
</svg>