<?xml version="1.0" encoding="UTF-8"?>
<svg width="178px" height="126px" viewBox="0 0 178 126" version="1.1" xmlns="http://www.w3.org/2000/svg" xmlns:xlink="http://www.w3.org/1999/xlink">
    <title>Fill-1</title>
    <g id="Page-1" stroke="none" stroke-width="1" fill="none" fill-rule="evenodd">
        <g id="TK_logo_mobile" fill="#B3A97E" fill-rule="nonzero">
            <path d="M120.409478,54.6704347 L170.374355,0 L157.976822,0 L106.485733,56.3254466 L106.485733,23.3231663 L105.546526,0 L1.36591941,0 L0.426712329,25.1890196 L6.25073543,25.1890196 C7.37684472,13.0609731 8.87957604,7.46341322 23.5312065,7.46341322 L40.741237,7.46341322 L40.741237,125.945098 L56.7077574,125.945098 L56.7077574,7.46341322 L73.6839253,7.46341322 C85.5367187,7.46341322 88.7995241,10.5896504 90.2205444,18.3226794 C90.300377,19.2873256 90.5192122,20.3098132 90.5192122,21.4349228 L90.5192122,125.945098 L106.485733,125.945098 L106.485733,62.5060857 L106.884896,62.5060857 L157.78898,125.945098 L177.512329,125.945098 L120.409478,54.6704347 Z" id="Fill-1"></path>
        </g>
    </g>
</svg>