<?xml version="1.0" encoding="UTF-8"?>
<svg width="21px" height="21px" viewBox="0 0 21 21" version="1.1" xmlns="http://www.w3.org/2000/svg" xmlns:xlink="http://www.w3.org/1999/xlink">
    <title>C7E61227-A201-46DE-9B2E-5DE3F4275DAD</title>
    <defs>
        <polygon id="path-1" points="0 0 21 0 21 21 0 21"></polygon>
    </defs>
    <g id="Page-1" stroke="none" stroke-width="1" fill="none" fill-rule="evenodd">
        <g id="Destination-Introduction-component-Copy-2" transform="translate(-740.000000, -604.000000)">
            <g id="Group" transform="translate(472.000000, 200.000000)">
                <g id="Group-38" transform="translate(48.000000, 403.000000)">
                    <g id="Group-3" transform="translate(220.000000, 1.000000)">
                        <mask id="mask-2" fill="white">
                            <use xlink:href="#path-1"></use>
                        </mask>
                        <g id="Clip-2"></g>
                        <path d="M13.66785,18.27525 C14.1603,17.28405 14.5593,16.0713 14.82915,14.7 L17.76285,14.7 C16.83465,16.3002 15.39615,17.56755 13.66785,18.27525 L13.66785,18.27525 Z M3.2361,14.7 L6.17085,14.7 C6.4407,16.0713 6.8397,17.28405 7.33215,18.27525 C5.60385,17.56755 4.16535,16.3002 3.2361,14.7 L3.2361,14.7 Z M7.33215,2.72475 C6.8397,3.71595 6.4407,4.9287 6.17085,6.3 L3.2361,6.3 C4.16535,4.69875 5.60385,3.4314 7.33215,2.72475 L7.33215,2.72475 Z M10.5,2.1 C10.9578,2.1 12.05925,3.56475 12.6798,6.3 L8.3202,6.3 C8.94075,3.56475 10.04325,2.1 10.5,2.1 L10.5,2.1 Z M2.1,10.5 C2.1,9.7734 2.2029,9.072 2.37615,8.4 L5.8695,8.4 C5.8086,9.0783 5.775,9.78075 5.775,10.5 C5.775,11.21925 5.8086,11.92065 5.8695,12.6 L2.37615,12.6 C2.2029,11.92695 2.1,11.2266 2.1,10.5 L2.1,10.5 Z M7.9821,12.6 C7.9149,11.94585 7.875,11.24865 7.875,10.5 C7.875,9.75135 7.9149,9.05415 7.9821,8.4 L13.0179,8.4 C13.08405,9.05415 13.125,9.75135 13.125,10.5 C13.125,11.24865 13.08405,11.94585 13.0179,12.6 L7.9821,12.6 Z M10.5,18.9 C10.04325,18.9 8.94075,17.43525 8.3202,14.7 L12.6798,14.7 C12.05925,17.43525 10.9578,18.9 10.5,18.9 L10.5,18.9 Z M18.9,10.5 C18.9,11.2266 18.79815,11.92695 18.62385,12.6 L15.1305,12.6 C15.1914,11.92065 15.225,11.21925 15.225,10.5 C15.225,9.78075 15.1914,9.0783 15.1305,8.4 L18.62385,8.4 C18.79815,9.072 18.9,9.7734 18.9,10.5 L18.9,10.5 Z M17.76285,6.3 L14.82915,6.3 C14.5593,4.9287 14.1603,3.71595 13.66785,2.72475 C15.39615,3.4314 16.83465,4.69875 17.76285,6.3 L17.76285,6.3 Z M10.5,0 C4.70085,0 0,4.70085 0,10.5 C0,16.2981 4.70085,21 10.5,21 C16.29915,21 21,16.2981 21,10.5 C21,4.70085 16.29915,0 10.5,0 L10.5,0 Z" id="Fill-1" fill="#B3A97E" mask="url(#mask-2)"></path>
                    </g>
                </g>
            </g>
        </g>
    </g>
</svg>